<svg version="1.1" id="Layer_1" xmlns="http://www.w3.org/2000/svg" xmlns:xlink="http://www.w3.org/1999/xlink" x="0px" y="0px"
	 width="100%" viewBox="0 0 1024 512" enable-background="new 0 0 1024 512" xml:space="preserve">
<path fill="#000000" opacity="1.000000" stroke="none" 
	d="
M382.225037,225.350098 
	C394.011658,202.774521 411.617401,188.171326 436.441376,182.983185 
	C453.024231,179.517410 468.096344,183.377121 481.892090,192.955826 
	C488.758545,197.723343 488.960785,197.797943 494.440277,191.637360 
	C504.323395,180.525833 516.080322,172.615707 530.537598,168.607529 
	C544.508484,164.734192 557.566772,167.465836 570.320435,173.160507 
	C581.161926,178.001373 590.288452,185.172638 597.667908,194.454086 
	C599.850342,197.199127 601.906860,197.853546 605.349243,196.761581 
	C626.238892,190.135056 646.665222,191.006271 666.361389,201.235153 
	C668.645996,202.421646 670.784058,203.021515 673.403198,201.627136 
	C688.705994,193.480438 704.757812,192.253006 721.233643,197.270523 
	C724.151611,198.159164 725.725952,197.564713 727.687256,195.530228 
	C736.245422,186.652542 745.606018,179.298889 758.505249,177.503754 
	C775.425110,175.149078 791.089783,178.660690 804.096191,189.199036 
	C812.590698,196.081543 819.443115,196.340775 828.933472,191.989044 
	C841.173340,186.376556 854.278198,183.145950 868.156677,184.645386 
	C888.144958,186.804932 902.231506,197.596390 912.750183,214.022629 
	C919.017883,223.810379 920.681091,234.893494 920.926270,246.032486 
	C921.399292,267.520325 921.601135,289.041809 920.955078,310.520447 
	C919.859253,346.953583 914.273987,382.456055 895.313599,414.537842 
	C877.861572,444.067474 853.781860,465.287323 820.144958,474.803894 
	C802.075562,479.916138 783.814819,481.967621 765.313843,478.942444 
	C742.472473,475.207550 723.878540,464.097321 710.272949,445.028595 
	C700.392334,431.180450 694.675171,416.096710 695.901611,398.857178 
	C696.160889,395.212402 694.562744,393.648560 691.170959,393.300903 
	C689.370056,393.116302 687.586121,392.767090 685.399353,392.431519 
	C684.724182,400.061340 684.179932,407.606750 683.365356,415.122864 
	C681.734131,430.175476 684.594421,444.967834 685.641907,459.873749 
	C686.908813,477.903198 680.395569,493.438873 662.099792,499.191071 
	C657.037231,500.782745 651.649780,501.092163 646.792542,499.652863 
	C640.112976,497.673584 633.954224,497.912750 627.356140,499.749207 
	C617.782471,502.413910 608.500488,500.160889 599.739746,496.127808 
	C595.922913,494.370758 592.957397,494.220337 589.053467,496.234222 
	C576.065125,502.934418 562.950806,503.911102 550.330139,495.065460 
	C548.294128,493.638519 546.686340,493.632690 544.426453,494.762177 
	C534.910706,499.517944 524.979187,501.444702 514.422485,498.536804 
	C511.332611,497.685730 508.207275,498.048340 505.088257,499.103851 
	C497.639984,501.624359 490.076447,502.142365 482.556732,499.379700 
	C478.802094,498.000275 475.233368,498.024475 471.353027,499.170471 
	C455.927063,503.726288 441.685638,501.105194 428.946625,491.238129 
	C426.555298,489.385895 424.954285,489.488220 422.379395,491.048187 
	C400.403229,504.362000 377.589294,505.190125 354.740295,493.899261 
	C341.961121,487.584381 334.701813,476.498993 331.426514,462.508087 
	C329.799011,455.555847 329.740265,448.661133 329.755859,441.693512 
	C329.787170,427.698608 329.552338,413.750305 328.150116,399.782013 
	C325.875519,377.123413 340.286499,359.640778 362.282410,357.460358 
	C378.636139,355.839203 393.600464,365.898987 397.988770,381.723480 
	C398.720062,384.360596 399.667389,385.667847 402.511597,385.964539 
	C410.984344,386.848389 418.776978,389.867340 425.327087,395.270233 
	C428.945465,398.254883 431.802979,398.585510 435.246704,395.477936 
	C436.587006,394.268494 438.230804,393.395355 440.141968,392.092529 
	C437.701324,389.958496 434.821686,389.658539 432.291534,388.749390 
	C406.536652,379.494843 390.123260,360.795563 380.114990,336.155029 
	C372.312531,316.945221 369.395172,296.698853 370.788330,275.995087 
	C371.953125,258.685059 374.676788,241.642120 382.225037,225.350098 
M526.351135,349.382904 
	C548.152039,355.539948 558.803711,340.603516 569.351929,325.944885 
	C571.691040,327.131012 572.352661,328.939026 573.358765,330.398071 
	C586.844543,349.956085 608.361694,357.281097 631.223511,350.585571 
	C644.257751,346.768158 654.296204,339.101898 662.671387,328.738556 
	C665.828491,324.831909 666.642517,325.035004 668.852722,329.396851 
	C669.830994,331.327454 670.628601,333.356262 671.695312,335.234283 
	C677.637512,345.696411 685.715820,353.206879 698.583801,352.827423 
	C713.625427,352.383911 723.329834,343.525970 730.749268,331.397583 
	C733.223267,327.353546 734.836792,322.779907 738.650574,318.144348 
	C749.364197,337.632385 766.585205,344.552094 787.131470,344.799255 
	C807.902649,345.049133 823.953796,335.239410 836.923340,319.878754 
	C839.912354,322.030029 839.356323,324.608673 839.188721,326.738495 
	C837.399841,349.470398 826.970947,366.731659 805.881958,376.241821 
	C794.833862,381.223969 782.372559,379.342010 776.043823,366.635864 
	C773.632263,361.794312 769.526489,358.770813 764.311401,357.214355 
	C740.195923,350.017120 715.795898,374.163879 721.796387,399.441406 
	C725.987488,417.096405 737.759216,427.907410 754.346069,433.710876 
	C775.332458,441.053589 796.330933,439.093231 816.916809,432.053497 
	C833.794617,426.281769 848.386780,416.614471 859.393555,402.453979 
	C879.623718,376.427246 888.923584,346.385071 889.627197,313.730743 
	C890.024597,295.289062 891.366699,276.870300 889.957458,258.349121 
	C888.719116,242.073898 888.158264,225.791565 883.732666,209.963074 
	C881.931946,203.522903 878.052124,198.971420 871.233459,197.809875 
	C858.559021,195.650833 846.349915,197.896744 834.669067,202.797012 
	C823.933899,207.300568 819.547180,216.103287 819.084351,227.392990 
	C818.627502,238.533844 818.120300,249.686188 817.114014,260.786255 
	C816.436829,268.255890 814.437866,275.533997 810.687195,282.152740 
	C808.254333,286.446167 804.778503,289.457886 799.521301,289.323730 
	C794.558838,289.197113 791.818665,285.879456 789.728027,281.864227 
	C788.728394,279.944458 788.093262,277.911896 787.516418,275.801636 
	C785.075134,266.871887 786.104797,257.919495 787.234253,249.016388 
	C788.798462,236.685974 793.572571,225.313461 798.178772,213.875839 
	C800.977661,206.925903 798.607117,200.802307 792.480164,196.505478 
	C787.615540,193.093857 782.149231,191.024689 776.444275,189.803986 
	C763.643433,187.064957 751.714539,188.540573 742.895020,199.352341 
	C737.781494,205.620819 735.286316,213.390396 733.276733,221.146759 
	C726.908325,245.726898 726.822510,270.499146 731.690796,295.320587 
	C732.507385,299.484009 731.426514,301.883118 727.489990,303.555511 
	C720.891052,306.358978 715.935303,304.420959 713.221985,297.482697 
	C711.015991,291.841675 710.103394,285.896515 709.959717,279.911285 
	C709.456970,258.976166 712.443237,238.437622 717.889404,218.275726 
	C718.974304,214.259247 717.565430,211.836761 714.449951,210.630310 
	C709.037292,208.534348 703.383911,207.204880 697.408752,207.982071 
	C687.095276,209.323547 678.745117,213.749756 673.061157,222.706421 
	C671.544434,225.096466 669.879395,225.939529 667.614258,223.245941 
	C656.235596,209.714844 641.598450,205.369385 624.295227,207.087646 
	C607.197937,208.785477 593.651794,216.258652 582.932800,229.438721 
	C570.003479,245.336655 564.730713,263.971100 563.481995,283.977814 
	C563.203064,288.447113 560.963867,290.791412 557.121582,291.754883 
	C553.182800,292.742554 550.823120,290.205383 549.322815,286.991608 
	C546.926270,281.858276 547.058411,276.291290 547.210632,270.818146 
	C547.595825,256.965790 549.773987,243.377304 553.776306,230.098587 
	C557.023804,219.324234 562.498108,210.302521 573.312012,205.540039 
	C581.269775,202.035400 581.925476,197.947571 575.400879,192.118362 
	C574.166321,191.015366 572.788879,190.048492 571.388428,189.158646 
	C551.371216,176.439941 524.898254,180.759964 509.694397,199.356491 
	C492.445129,220.454849 487.798828,245.125305 489.905518,271.516510 
	C490.502686,278.997864 490.870514,286.069611 485.014587,291.966248 
	C481.049225,295.959106 477.066284,300.203552 470.895905,298.491150 
	C464.488403,296.712982 463.179718,290.801514 461.962372,285.171021 
	C461.823608,284.529297 461.914948,283.840851 461.862366,283.177002 
	C461.118011,273.785217 462.627350,264.568451 464.229340,255.391785 
	C466.318451,243.424927 470.121552,231.867737 473.060059,220.102509 
	C475.937195,208.582993 472.036072,201.720413 460.681274,198.567993 
	C457.013092,197.549606 453.181213,196.763077 449.392792,196.599762 
	C435.793121,196.013611 423.765381,199.355606 416.543976,212.118820 
	C410.357697,223.052475 406.255066,234.890091 404.400208,247.277390 
	C402.406921,260.589355 401.648743,273.983826 403.082642,287.525299 
	C404.761047,303.375763 408.788513,318.277557 418.039429,331.397736 
	C438.605225,360.565308 481.693542,359.776093 498.865540,328.547089 
	C499.615601,327.182983 499.941833,325.262604 502.938477,324.994568 
	C508.248688,334.728912 514.029663,344.753784 526.351135,349.382904 
M593.586975,417.174438 
	C589.143250,428.875366 589.712891,440.381622 595.452637,451.449646 
	C603.939270,467.814911 621.892334,472.020691 636.597046,461.128723 
	C639.453186,459.013123 641.070007,459.621521 643.269348,462.011230 
	C647.977417,467.126984 653.718689,468.169708 659.031799,465.330322 
	C663.189392,463.108490 664.636047,458.368042 663.688110,451.662109 
	C662.712585,444.760986 661.848755,437.843048 661.676270,430.844421 
	C661.335388,417.011566 662.911133,403.276093 663.503235,389.492004 
	C663.761047,383.490173 663.219421,377.611328 657.189148,374.297729 
	C651.599854,371.226501 645.739563,370.791687 640.074524,374.138763 
	C633.987183,377.735352 634.935608,383.682587 635.551880,389.319580 
	C635.863342,392.168884 635.842590,394.938049 635.477478,397.764160 
	C635.115356,400.566193 633.927612,401.471191 631.098083,400.605499 
	C614.043091,395.387299 599.275574,403.881836 593.586975,417.174438 
M355.160645,405.552032 
	C355.168579,416.216248 355.206421,426.880585 355.177521,437.544678 
	C355.132599,454.113892 359.819275,460.551605 375.581207,465.825775 
	C399.353760,473.780396 428.796722,459.236816 424.825989,425.831085 
	C422.712677,408.051422 408.186096,394.643890 387.143402,400.411774 
	C382.272919,401.746796 381.231232,400.998199 380.932404,395.944061 
	C380.619232,390.647552 381.315369,385.303467 379.667114,380.076050 
	C377.441223,373.016846 371.825226,369.326111 364.372925,370.324921 
	C357.277344,371.275909 353.922363,375.075348 353.984802,383.129822 
	C354.040253,390.279510 354.738953,397.424255 355.160645,405.552032 
M478.567566,403.766235 
	C477.308563,403.363342 476.035004,403.000641 474.793091,402.550568 
	C469.799225,400.740631 465.005463,399.005890 459.329468,400.071991 
	C437.607239,404.152191 425.837616,429.697327 433.981293,449.791260 
	C441.553467,468.475006 462.819611,473.757080 477.814331,460.442474 
	C478.557404,459.782654 479.242432,458.998169 480.793915,459.434692 
	C481.387665,460.226440 482.197144,461.257477 482.955353,462.324921 
	C486.974487,467.983368 491.880096,469.957123 496.973541,467.946533 
	C502.777618,465.655396 506.007477,460.044617 504.574615,453.340607 
	C501.917847,440.910126 500.258240,428.435760 500.898499,415.696747 
	C501.163635,410.422211 498.512390,406.865112 493.810760,404.707916 
	C489.111145,402.551666 484.331482,401.603760 478.567566,403.766235 
M575.102722,411.472351 
	C571.545715,405.986359 566.466614,402.765228 560.091370,401.641418 
	C551.556824,400.136932 544.534973,403.392700 538.430847,409.401367 
	C537.537720,408.452820 536.903687,407.928223 536.452332,407.276978 
	C532.045227,400.917664 529.135986,399.669678 522.768311,400.957550 
	C516.381104,402.249329 513.869202,406.899841 513.566711,412.488525 
	C512.802307,426.611664 512.332092,440.771332 513.926575,454.885071 
	C514.167114,457.014496 514.663147,459.165955 515.393311,461.179474 
	C517.423645,466.778595 522.877319,469.486481 528.625854,467.938568 
	C537.021179,465.677979 540.797729,459.704346 539.535156,449.927979 
	C538.839905,444.544678 538.829651,439.265015 540.443115,434.112274 
	C541.989380,429.174316 546.351074,425.975037 550.475830,426.772522 
	C555.589478,427.761078 555.880859,432.169861 556.085693,436.116364 
	C556.352905,441.264618 555.917725,446.446320 556.099060,451.602600 
	C556.557556,464.641174 565.429443,470.741577 577.875977,466.728119 
	C584.246582,464.673828 587.393188,459.083649 584.689209,453.032623 
	C581.457825,445.801483 580.833130,438.341888 580.684387,430.638550 
	C580.557312,424.062195 578.838684,417.819305 575.102722,411.472351 
M582.059021,399.326782 
	C583.298584,400.222778 584.514343,401.131531 586.064880,399.855103 
	C588.984558,397.451538 591.928711,395.077667 595.439758,392.222046 
	C587.011475,388.797028 579.080933,385.908081 571.576599,382.065796 
	C570.573303,381.552094 569.630371,382.174194 568.733887,382.573212 
	C564.696655,384.369995 560.671448,386.193909 555.429871,388.553680 
	C561.109680,388.868073 565.196472,390.578613 569.306519,392.161011 
	C573.665222,393.839142 577.711243,396.150421 582.059021,399.326782 
M492.302124,390.137360 
	C494.970703,391.028168 497.683563,391.807922 500.292450,392.848419 
	C502.059601,393.553284 503.723114,394.132446 505.521149,393.148499 
	C508.658203,391.431854 511.782776,389.692444 515.049072,387.887085 
	C504.861938,380.089142 495.402740,380.379089 485.776123,388.515808 
	C487.704346,388.969971 489.632538,389.424103 492.302124,390.137360 
z"/>
<path fill="#000000" opacity="1.000000" stroke="none" 
	d="
M218.373962,387.707092 
	C213.680954,383.418427 209.752472,384.103058 204.414536,386.850250 
	C189.442947,394.555359 174.192764,393.686493 159.508804,385.411896 
	C157.127975,384.070282 155.409332,383.432098 152.831299,385.259857 
	C119.292610,409.038147 78.524292,399.375580 53.297070,370.533997 
	C39.058731,354.255707 31.484339,335.145172 30.898632,313.638306 
	C29.579973,265.217865 50.069267,228.015549 90.048592,201.217697 
	C94.499161,198.234512 99.528976,196.359344 104.586441,194.678406 
	C107.380974,193.749603 108.982216,192.178940 109.701500,189.227402 
	C112.801971,176.504776 120.290222,166.772797 130.876511,159.359695 
	C134.169800,157.053589 135.161392,154.794250 133.971619,150.596176 
	C124.597313,117.519112 143.154510,80.834999 173.938629,70.407959 
	C192.448242,64.138474 209.357208,68.082191 225.580536,77.432709 
	C232.810837,81.599976 239.522476,86.570969 245.671509,92.216797 
	C247.868195,94.233727 249.426804,94.725258 252.016144,92.708809 
	C268.901093,79.559639 288.827423,74.515045 309.515137,74.303658 
	C343.679840,73.954575 377.036407,96.217743 384.441406,130.220993 
	C389.282471,152.450806 383.130646,172.358612 368.230988,189.504974 
	C364.290588,194.039581 359.837097,198.078522 355.052704,201.715286 
	C352.780792,203.442200 352.474182,205.204453 353.901672,207.686081 
	C363.940277,225.138000 363.532257,242.526276 353.312286,259.755310 
	C352.179901,261.664276 352.219177,263.456207 352.857422,265.475189 
	C357.530853,280.259613 359.164734,295.464874 358.065918,310.853882 
	C356.487549,332.959137 348.229401,352.383453 333.678986,369.207642 
	C312.577667,393.606445 285.830688,403.873138 254.035583,400.898895 
	C241.276718,399.705383 229.682999,394.380219 218.373962,387.707092 
M331.908325,279.546967 
	C331.918121,267.695526 328.994781,256.506897 323.921692,245.893799 
	C321.832306,241.522812 321.836670,238.728012 326.436768,235.569061 
	C335.507294,229.340256 338.376129,219.092590 334.470276,210.618835 
	C326.845764,194.077637 302.355957,189.362396 290.894104,203.455048 
	C284.265503,211.605103 278.748322,212.082397 270.822449,207.534729 
	C269.682648,206.880737 268.363037,206.526855 267.106964,206.090790 
	C255.288055,201.987686 243.945786,202.577057 233.145538,209.366196 
	C223.212280,215.610352 216.413315,224.534180 211.473236,234.913315 
	C202.789627,253.157623 199.750092,272.568451 200.175110,292.632751 
	C200.219727,294.739105 200.708191,297.343445 197.750198,297.892456 
	C195.175369,298.370331 193.901886,296.284180 192.838486,294.382538 
	C192.286743,293.395844 191.975357,292.217163 191.799286,291.087219 
	C190.618774,283.511200 190.206741,275.883759 189.962463,268.217102 
	C189.536987,254.863998 190.440659,241.592102 191.813705,228.343674 
	C192.679886,219.985718 192.708633,211.373398 198.755051,204.402603 
	C200.856125,201.980331 201.582123,198.574753 201.451218,195.454132 
	C201.251053,190.683014 200.989822,185.781036 195.405426,183.359619 
	C185.726608,179.162827 176.913483,173.509354 168.950912,166.560013 
	C167.436462,165.238251 165.990814,164.066696 163.624695,164.646393 
	C155.799896,166.563446 148.276230,169.188553 141.766464,174.040695 
	C129.768478,182.983536 130.946442,199.942642 143.894287,206.015366 
	C152.008316,209.820953 153.612289,216.925201 148.104446,224.969330 
	C145.695419,224.657837 144.720764,222.457550 143.244781,221.015411 
	C136.487213,214.412704 128.208557,210.635269 119.028870,210.716827 
	C108.186111,210.813187 98.629593,215.610229 90.782379,223.048904 
	C66.971428,245.620239 55.926128,273.252991 59.197937,306.087219 
	C61.155552,325.732849 70.423927,341.009216 88.057335,350.652710 
	C106.442719,360.707397 130.179352,359.952789 145.683395,341.512268 
	C148.817429,337.784637 151.513489,333.830292 153.726135,329.512878 
	C154.319199,328.355652 154.834900,326.899963 156.529907,327.123413 
	C157.905838,327.304810 158.125427,328.619629 158.614792,329.674957 
	C160.785965,334.357117 162.912323,339.060089 166.192169,343.130829 
	C172.246277,350.644714 181.732971,353.388916 190.815094,350.113922 
	C198.941559,347.183533 203.575623,340.862915 206.929428,333.327606 
	C209.010437,328.651978 209.911652,328.517334 213.316132,332.329987 
	C217.541977,337.062439 222.055206,341.464386 227.243896,345.173492 
	C258.241730,367.332275 296.941101,361.755676 318.373871,332.050934 
	C329.520050,316.602875 332.897736,299.147125 331.908325,279.546967 
M323.778992,87.641945 
	C297.903656,84.571617 275.877716,92.191475 257.724091,111.064186 
	C247.519348,121.673141 239.895004,133.798553 234.784973,147.563965 
	C232.354813,154.110382 231.473724,154.488739 224.933502,151.572159 
	C222.051773,150.287079 219.177719,148.912186 216.503403,147.250931 
	C212.034866,144.475113 208.541412,140.722336 206.398438,135.832428 
	C204.392700,131.255692 204.960236,126.955193 208.283813,123.290924 
	C211.536850,119.704437 215.586655,119.999626 219.796844,121.539467 
	C227.500290,124.356941 232.211273,121.820648 234.364471,113.868759 
	C235.168137,110.900772 235.140381,107.977501 234.388184,104.993378 
	C230.139359,88.137665 204.070648,76.017494 186.459763,82.212700 
	C158.763763,91.955666 150.853638,128.151398 165.293579,149.813629 
	C171.781769,159.546967 180.982925,166.081253 190.932343,171.585419 
	C211.179749,182.786560 233.284042,187.001205 256.136780,187.853348 
	C270.107483,188.374298 284.031555,187.970200 297.780670,184.860275 
	C316.732880,180.573456 334.513855,174.085968 348.089783,159.284744 
	C361.697296,144.449097 365.660034,124.023140 355.476990,107.974304 
	C348.380066,96.789276 337.815308,90.112892 323.778992,87.641945 
z"/>
<path fill="#000000" opacity="1.000000" stroke="none" 
	d="
M958.566284,207.371536 
	C951.776733,201.043121 955.869995,189.774765 964.997437,186.984451 
	C967.782104,186.133179 972.040588,187.074921 973.080078,184.214249 
	C974.494507,180.321869 975.439575,175.914383 974.413025,170.985107 
	C967.341553,171.056412 960.272766,170.985931 953.303833,172.476791 
	C950.704468,173.032883 950.447144,175.370682 950.167969,177.587265 
	C949.229675,185.037415 949.332886,192.523438 949.222839,200.008591 
	C949.089661,209.060577 944.711060,215.368561 937.006226,218.229767 
	C932.510315,219.899261 928.191650,219.548203 923.963562,217.470047 
	C915.747620,213.431824 914.430908,203.762817 921.329895,197.681656 
	C924.386047,194.987762 928.039551,192.799133 932.088013,192.969086 
	C937.436523,193.193588 938.821899,190.303223 938.821350,186.030457 
	C938.820435,178.678665 940.219177,171.459198 940.593750,164.157547 
	C940.805725,160.024246 942.691711,158.049072 946.709778,157.902054 
	C957.001770,157.525436 967.291504,157.027725 977.587036,156.824326 
	C984.157410,156.694550 985.424683,157.932938 985.256836,164.273315 
	C984.966553,175.238541 984.740051,186.224640 983.824646,197.146469 
	C983.327515,203.077316 981.865967,209.026733 975.192444,211.761230 
	C968.606506,214.459854 963.617981,211.628876 958.566284,207.371536 
z"/>
<path fill="#000000" opacity="1.000000" stroke="none" 
	d="
M941.928955,262.661926 
	C940.574402,260.314819 940.084167,258.216461 941.795105,256.321655 
	C943.596436,254.326859 945.818604,254.284424 948.194885,255.371307 
	C949.090759,255.781082 950.110046,255.925095 951.077332,256.173859 
	C958.730469,258.142029 960.180420,257.341919 962.750183,249.846359 
	C963.879883,246.551178 964.501831,243.034775 966.620422,240.149857 
	C970.551331,234.796936 975.290405,235.286926 977.921875,241.386826 
	C979.368225,244.739685 980.539490,248.212631 981.795288,251.645905 
	C982.791504,254.369583 984.476807,255.444794 987.540222,255.072189 
	C991.160217,254.631912 994.860046,254.679855 998.518494,254.775375 
	C1001.526978,254.853928 1004.750671,255.098709 1006.200623,258.365326 
	C1007.727478,261.805206 1005.776794,264.549103 1003.634460,266.929626 
	C1001.187622,269.648560 998.491516,272.149017 995.832886,274.669708 
	C993.395874,276.980255 992.617310,279.447113 993.990906,282.738464 
	C995.266663,285.795593 996.182922,289.030212 996.964111,292.257660 
	C997.605469,294.907196 997.565002,297.581238 995.120422,299.569916 
	C992.756653,301.492859 990.435669,300.582764 988.102173,299.542542 
	C987.645813,299.339111 987.203064,299.105316 986.749756,298.894745 
	C978.210022,294.927734 977.827087,295.041901 973.583984,303.571136 
	C972.526550,305.696747 971.630676,308.243683 968.770508,307.826050 
	C965.500000,307.348572 965.070496,304.497467 964.776794,301.726654 
	C964.038269,294.756989 961.626953,292.962158 954.496887,293.822418 
	C951.357300,294.201233 948.201782,294.453949 945.050232,294.726105 
	C942.747498,294.924957 940.687866,294.458954 939.564270,292.169861 
	C938.391113,289.779877 938.948425,287.635803 940.725586,285.759674 
	C942.672913,283.703949 944.627075,281.654266 946.606689,279.629791 
	C950.068604,276.089478 950.540405,272.540070 946.919006,268.747314 
	C945.199402,266.946259 943.721008,264.914978 941.928955,262.661926 
M953.406311,286.840515 
	C959.906616,286.424896 966.339600,286.159485 968.831482,295.508301 
	C975.008850,285.017517 982.393799,290.605164 989.427002,292.442108 
	C989.872742,288.482391 988.634155,285.474274 987.441162,282.693542 
	C985.393494,277.920654 986.866882,274.505890 990.197693,271.086365 
	C992.652100,268.566620 995.757080,266.423798 996.929199,262.745361 
	C993.184692,260.718994 989.435547,261.088562 985.870667,261.489838 
	C981.446045,261.987854 979.105652,260.093750 977.372925,256.310425 
	C975.847900,252.980804 974.857666,249.199631 971.430969,246.735229 
	C968.110107,250.814865 967.723267,255.898376 965.359253,260.033356 
	C962.315552,265.357208 956.532959,262.302185 951.602173,264.110840 
	C957.791382,271.025452 956.861084,277.761597 951.521362,284.389160 
	C950.490479,285.668732 951.151428,286.527924 953.406311,286.840515 
z"/>
<path fill="#000000" opacity="1.000000" stroke="none" 
	d="
M981.406250,367.650391 
	C980.426086,368.069672 979.808716,368.490234 979.178894,368.509888 
	C970.298035,368.787567 964.386902,372.461945 961.482483,381.485687 
	C959.938721,386.281830 955.168335,386.013733 952.328979,381.670868 
	C951.966553,381.116638 951.585876,380.536072 951.397461,379.912170 
	C949.026611,372.063293 943.717529,368.686127 935.618225,369.282440 
	C933.002930,369.475006 931.171509,368.071014 930.299316,365.589050 
	C929.436279,363.133484 930.763855,361.450714 932.464905,359.947723 
	C932.713318,359.728241 933.005188,359.558655 933.268860,359.355530 
	C940.708984,353.624908 940.701233,353.626984 937.959839,344.589172 
	C937.525757,343.157867 937.048767,341.715363 936.845215,340.242950 
	C936.291199,336.235168 939.330383,333.453003 943.257080,334.355804 
	C944.378357,334.613586 945.516785,335.051697 946.489197,335.659912 
	C951.945923,339.072845 957.067078,338.865509 961.988220,334.566284 
	C962.973694,333.705353 964.197327,333.045624 965.412109,332.531921 
	C969.123474,330.962463 972.098450,332.500458 972.909363,336.445099 
	C973.172058,337.723083 973.344238,339.202728 972.962097,340.399994 
	C970.765564,347.281372 973.886597,351.547089 979.604065,354.712433 
	C980.610168,355.269440 981.510132,356.059265 982.362366,356.846283 
	C986.558594,360.721527 986.385681,363.553345 981.406250,367.650391 
M960.546753,344.092529 
	C959.292664,345.101166 957.404114,345.313171 956.706787,347.153778 
	C957.288513,349.497467 959.154785,350.661835 961.164551,351.411469 
	C963.551636,352.301941 964.936646,353.798492 965.810791,356.187988 
	C967.278381,360.199951 967.602783,360.204987 971.971191,357.569336 
	C966.603210,353.833282 965.108948,348.418213 965.726990,342.454681 
	C963.499023,341.806030 962.446350,343.149323 960.546753,344.092529 
M958.530334,366.950256 
	C956.532227,365.154449 954.418823,364.514069 951.795044,366.244873 
	C953.374390,368.886017 954.083374,371.837036 956.680298,374.034454 
	C958.208374,371.904388 960.346375,370.328613 958.530334,366.950256 
M947.704590,346.768188 
	C946.296265,349.725342 947.799255,352.519531 947.740540,356.633118 
	C949.819092,352.466888 947.674744,348.288574 951.855957,346.463379 
	C950.192810,345.140076 949.171814,345.621887 947.704590,346.768188 
z"/>
<path fill="#000000" opacity="1.000000" stroke="none" 
	d="
M871.088501,119.850327 
	C870.993591,124.009254 869.813477,127.478584 868.707703,130.964828 
	C867.491455,134.799652 868.631836,137.409973 872.573730,138.733749 
	C875.562927,139.737625 878.549561,140.788712 881.433167,142.055801 
	C884.075073,143.216675 886.427734,144.804855 886.550476,148.179962 
	C886.671326,151.501816 885.324341,153.961746 882.362000,155.508896 
	C875.116272,159.293091 867.422668,162.007263 859.685242,164.501526 
	C855.335693,165.903656 851.506653,161.559464 852.361267,156.604996 
	C853.017639,152.800034 854.843201,149.388779 856.426392,145.912262 
	C857.706482,143.101257 857.117249,141.122955 854.073547,140.069351 
	C851.723389,139.255829 849.326538,138.536362 847.061707,137.525742 
	C842.183044,135.348755 841.127380,131.904007 844.248840,127.577095 
	C848.235901,122.050194 852.509033,116.729477 856.662781,111.322975 
	C859.034668,108.235870 861.947815,106.052689 866.046997,107.042076 
	C870.404053,108.093704 870.431763,111.965729 870.880615,115.419075 
	C871.051514,116.733910 871.025208,118.074364 871.088501,119.850327 
z"/>
<path fill="#000000" opacity="1.000000" stroke="none" 
	d="
M109.032867,121.631599 
	C108.745087,126.541718 111.919456,128.811981 114.696014,131.503952 
	C117.025879,133.762848 121.666405,135.172760 120.071136,139.501572 
	C118.320442,144.252136 113.886612,142.868896 110.100845,142.448563 
	C101.898270,141.537796 101.496208,141.806458 98.343422,149.681763 
	C98.034157,150.454285 97.656456,151.202286 97.389839,151.988571 
	C96.270699,155.289124 94.927284,158.505768 90.608063,157.901230 
	C86.560631,157.334717 87.035843,153.987686 86.553833,150.982773 
	C85.039795,141.544037 79.196075,134.381561 73.359711,127.292107 
	C71.456734,124.980560 69.294945,122.883270 67.276901,120.664909 
	C65.377754,118.577232 63.955147,116.259468 65.770416,113.499756 
	C67.568703,110.765884 70.355835,110.285561 73.291000,111.204742 
	C78.368179,112.794708 83.521072,114.260460 88.385704,116.369850 
	C91.577919,117.754044 93.680779,117.267853 95.799469,114.798065 
	C97.096962,113.285553 98.578148,111.921555 100.048569,110.568825 
	C101.767159,108.987778 103.522568,107.184723 106.175354,108.322571 
	C108.724594,109.416008 109.083015,111.744125 109.062057,114.188751 
	C109.042061,116.521233 109.033371,118.853828 109.032867,121.631599 
M90.830017,140.438736 
	C92.585075,143.475479 93.787003,141.803741 95.766663,140.336563 
	C99.019623,137.925705 99.073265,132.742691 104.009308,131.619827 
	C101.779839,129.024734 101.916504,125.719376 101.126381,122.806656 
	C91.861420,122.085510 86.426277,131.019318 90.830017,140.438736 
z"/>
<path fill="#000000" opacity="1.000000" stroke="none" 
	d="
M285.319641,457.827393 
	C282.642792,456.411865 281.853882,454.333984 281.853455,451.836945 
	C281.853058,449.671722 281.858398,447.506409 281.839447,445.341339 
	C281.755707,435.772430 279.455475,433.402710 268.781921,432.563049 
	C269.237640,438.355042 269.329163,444.115997 270.244019,449.743042 
	C271.026306,454.554810 271.310730,459.333588 271.223938,464.156128 
	C271.090302,471.582642 264.483490,478.511780 257.091400,479.184387 
	C252.299011,479.620483 248.628418,477.849396 246.185684,473.686279 
	C243.690506,469.433777 244.440872,465.268280 247.054947,461.470886 
	C249.702957,457.624084 253.364731,455.003845 258.205200,454.740540 
	C263.043762,454.477356 264.389923,452.001465 263.663849,447.498322 
	C262.368927,439.467499 261.335327,431.394806 260.134888,423.348236 
	C259.756409,420.811462 259.287750,418.192474 261.794434,416.542358 
	C264.644989,414.665863 266.421021,417.134644 268.253265,418.677277 
	C271.240723,421.192627 274.697968,422.786530 278.286713,424.149658 
	C283.620300,426.175507 286.464813,430.005798 287.370331,435.637878 
	C288.213928,440.884644 289.578094,446.045502 290.566254,451.271973 
	C291.291229,455.106445 290.384766,457.966125 285.319641,457.827393 
z"/>
<path fill="#000000" opacity="1.000000" stroke="none" 
	d="
M824.799866,146.226807 
	C826.239502,149.110855 829.134583,151.336716 827.036804,154.658844 
	C824.782654,158.228561 821.283142,158.262756 817.709229,157.400131 
	C812.361511,156.109375 808.390869,158.180542 804.881836,162.031433 
	C802.904602,164.201324 800.763916,166.901154 797.285095,165.389160 
	C793.819885,163.883087 793.739014,160.568832 793.725342,157.293777 
	C793.692383,149.380295 793.062439,148.591965 785.327698,147.299957 
	C782.463074,146.821457 780.089661,145.852570 779.386108,142.851639 
	C778.630310,139.627625 781.186768,138.149582 783.262024,136.516541 
	C783.647888,136.212860 784.104248,135.929199 784.572327,135.809845 
	C792.030579,133.908264 796.865479,129.865982 798.731140,121.812027 
	C799.867859,116.904709 804.914368,116.217026 807.791931,120.437782 
	C811.338257,125.639549 815.726746,126.803474 821.458618,126.011322 
	C824.278992,125.621536 827.381287,125.869461 828.772217,128.994400 
	C830.262634,132.342880 827.781189,134.382248 825.516479,136.028336 
	C821.303772,139.090195 822.253906,142.376907 824.799866,146.226807 
M803.004700,131.003937 
	C801.134583,138.831711 798.761963,146.637497 801.944092,155.896286 
	C806.025818,150.536499 811.251221,149.434860 817.706482,149.702133 
	C815.397705,144.236542 814.736816,139.426514 817.185364,134.169327 
	C812.424500,134.201309 809.054077,132.551819 806.360657,129.630142 
	C804.712708,127.842476 803.950806,128.762161 803.004700,131.003937 
z"/>
<path fill="#000000" opacity="1.000000" stroke="none" 
	d="
M185.999573,425.950500 
	C183.490295,421.213928 184.443298,418.547882 189.267517,417.965546 
	C194.156998,417.375336 196.325348,415.156372 196.449448,410.338745 
	C196.514755,407.803802 197.185776,405.143219 200.122421,404.457092 
	C202.932175,403.800659 204.369202,406.208038 205.568619,408.054779 
	C208.165039,412.052521 211.190659,413.717682 216.028397,412.032532 
	C218.473694,411.180756 221.394104,411.106476 223.172089,413.922089 
	C224.982483,416.789001 223.517792,419.149078 221.603958,421.056213 
	C218.266357,424.382172 218.357681,427.514496 221.148087,431.104065 
	C222.655304,433.043030 224.171143,435.315338 222.308578,437.911072 
	C220.623581,440.259277 218.027328,440.603729 215.559204,440.028687 
	C210.517944,438.854095 206.737549,440.378784 203.043503,443.925354 
	C199.436249,447.388519 195.035309,445.822571 195.086456,440.959534 
	C195.160889,433.881958 192.187317,429.337708 185.999573,425.950500 
M202.934525,421.268738 
	C199.571594,425.950165 199.561722,430.775726 202.318649,435.913940 
	C204.252625,433.946106 206.006348,431.915436 208.957245,431.772980 
	C210.250931,431.710571 211.127335,430.833557 211.191940,429.515625 
	C211.394455,425.385376 210.866318,421.579468 206.683060,419.318726 
	C204.858246,418.332550 203.563156,418.152069 202.934525,421.268738 
z"/>
<path fill="#000000" opacity="1.000000" stroke="none" 
	d="
M57.396030,200.214630 
	C53.301403,204.390121 48.138279,206.778519 44.903664,211.415924 
	C43.801346,212.996292 41.917854,213.631989 40.035866,212.419312 
	C37.989391,211.100647 37.863560,209.197632 38.841068,207.168533 
	C39.944103,204.878891 41.619881,203.024796 43.636887,201.510376 
	C45.897030,199.813431 48.295761,198.295670 50.504967,196.537567 
	C53.742954,193.960724 53.501881,191.408997 49.674931,189.860779 
	C46.456757,188.558884 43.009846,187.823441 39.666279,186.830200 
	C36.127914,185.779068 33.125465,184.105087 32.760281,179.952225 
	C32.406647,175.930695 34.639637,173.367859 38.001923,171.668564 
	C42.452007,169.419464 46.989620,167.341202 51.408600,165.034302 
	C52.829979,164.292313 54.566105,163.342850 54.441566,161.405197 
	C54.307350,159.316879 52.504234,158.420029 50.804932,157.684280 
	C48.176472,156.546219 45.368824,156.265457 42.538807,156.000488 
	C39.444386,155.710754 36.700851,154.408417 37.224735,150.797333 
	C37.774521,147.007660 40.872009,147.021698 43.856167,147.634201 
	C47.955399,148.475586 51.838684,149.992249 55.490108,151.987823 
	C63.496361,156.363419 63.846699,166.029373 56.120014,170.969360 
	C53.481297,172.656403 50.501232,173.826904 47.626934,175.122040 
	C45.687153,175.996124 43.497261,176.467911 42.666912,179.138321 
	C44.702179,181.354538 47.631935,181.427963 50.251087,182.238266 
	C60.163979,185.305084 62.828175,191.716736 57.396030,200.214630 
z"/>
<path fill="#000000" opacity="1.000000" stroke="none" 
	d="
M640.123413,296.603882 
	C630.832520,297.923798 624.045532,292.578247 622.761841,283.318970 
	C621.501404,274.226959 622.534180,265.378296 626.149902,256.943756 
	C628.897705,250.533768 632.945618,245.271820 640.680786,245.002655 
	C646.654358,244.794785 651.786804,249.524887 654.348816,257.689941 
	C656.953613,265.991425 656.767517,274.404907 653.955688,282.681549 
	C651.674133,289.397308 647.234314,294.060333 640.123413,296.603882 
z"/>
<path fill="#000000" opacity="1.000000" stroke="none" 
	d="
M618.821167,440.428467 
	C614.446472,436.935577 613.855164,432.681610 615.302795,428.061951 
	C616.917664,422.908722 622.794678,419.700562 627.509094,421.145935 
	C632.826599,422.776184 635.931458,428.386780 634.458984,433.704712 
	C632.743286,439.901123 627.774597,443.352417 622.322388,442.040070 
	C621.215332,441.773590 620.197510,441.136627 618.821167,440.428467 
z"/>
<path fill="#000000" opacity="1.000000" stroke="none" 
	d="
M385.570740,442.771118 
	C380.388885,438.062042 379.205231,432.804291 381.955017,427.942383 
	C384.782867,422.942352 390.515411,420.837402 395.032104,423.140564 
	C400.289307,425.821320 402.520416,431.917542 400.129150,437.067596 
	C397.315948,443.126404 392.008392,445.333679 385.570740,442.771118 
z"/>
<path fill="#000000" opacity="1.000000" stroke="none" 
	d="
M455.931061,431.336090 
	C456.311920,428.729736 457.321167,426.824677 458.781830,425.208496 
	C461.976471,421.673492 468.000610,420.799103 472.037415,423.189240 
	C476.047058,425.563385 477.526276,429.940186 476.000488,434.915588 
	C474.518127,439.749420 469.353302,443.474762 464.734833,443.041412 
	C460.322479,442.627411 456.691803,439.013763 455.944702,434.226410 
	C455.818329,433.416443 455.907623,432.572815 455.931061,431.336090 
z"/>
<path fill="#000000" opacity="1.000000" stroke="none" 
	d="
M248.803040,273.088196 
	C251.289566,262.278290 253.695099,251.909454 260.718628,243.359070 
	C265.107086,238.016663 266.606537,237.742630 272.140503,242.147079 
	C281.268585,249.412109 284.545868,259.736786 285.978516,270.585968 
	C286.907623,277.622253 286.774048,284.863800 284.271088,291.823914 
	C280.727661,301.677094 274.072327,307.608887 266.752075,307.092896 
	C258.478638,306.509705 250.964996,298.943329 248.745316,289.376129 
	C247.506332,284.035889 247.911636,278.805359 248.803040,273.088196 
z"/>
<path fill="#000000" opacity="1.000000" stroke="none" 
	d="
M140.970398,290.766174 
	C137.610504,297.049164 133.051987,301.150116 125.982063,301.287354 
	C118.930618,301.424255 111.876480,294.871582 110.786400,287.212158 
	C109.316246,276.882019 112.038902,267.431824 117.687912,258.852112 
	C122.078384,252.183868 128.252853,249.097137 133.309113,250.495941 
	C139.763550,252.281525 144.241043,258.298309 145.142578,266.232361 
	C146.103729,274.691071 144.978470,282.784637 140.970398,290.766174 
z"/>
<path fill="#000000" opacity="1.000000" stroke="none" 
	d="
M311.048218,119.570343 
	C322.272614,124.432556 324.131683,133.756516 315.660126,142.106232 
	C307.553833,150.095917 297.112152,153.546402 286.375977,156.069199 
	C280.578827,157.431427 274.641205,158.225861 268.740479,159.097244 
	C267.193176,159.325745 265.242188,159.585709 264.261597,157.789688 
	C263.403870,156.218658 264.570618,154.920822 265.359467,153.697418 
	C273.232513,141.487625 281.560638,129.609360 294.984131,122.845314 
	C299.776611,120.430397 304.884979,117.962135 311.048218,119.570343 
z"/>
</svg>